<svg width="24" height="25" viewBox="0 0 24 25" fill="none" xmlns="http://www.w3.org/2000/svg">
<path d="M15.1248 21.5999L6.6998 13.1999C6.5998 13.0999 6.52914 12.9916 6.4878 12.8749C6.4458 12.7582 6.4248 12.6332 6.4248 12.4999C6.4248 12.3666 6.4458 12.2416 6.4878 12.1249C6.52914 12.0082 6.5998 11.8999 6.6998 11.7999L15.1248 3.3749C15.3581 3.14157 15.6498 3.0249 15.9998 3.0249C16.3498 3.0249 16.6498 3.1499 16.8998 3.3999C17.1498 3.6499 17.2748 3.94157 17.2748 4.2749C17.2748 4.60824 17.1498 4.8999 16.8998 5.1499L9.5498 12.4999L16.8998 19.8499C17.1331 20.0832 17.2498 20.3706 17.2498 20.7119C17.2498 21.0539 17.1248 21.3499 16.8748 21.5999C16.6248 21.8499 16.3331 21.9749 15.9998 21.9749C15.6665 21.9749 15.3748 21.8499 15.1248 21.5999Z" fill="#333333"/>
</svg>
