<svg width="10" height="11" viewBox="0 0 10 11" fill="none" xmlns="http://www.w3.org/2000/svg">
<path d="M2.97949 9.2915C2.87533 9.18734 2.82324 9.064 2.82324 8.9215C2.82324 8.77928 2.87533 8.65609 2.97949 8.55192L6.03158 5.49984L2.96908 2.43734C2.87185 2.34012 2.82324 2.21859 2.82324 2.07275C2.82324 1.92692 2.87533 1.80192 2.97949 1.69775C3.08366 1.59359 3.20699 1.5415 3.34949 1.5415C3.49171 1.5415 3.61491 1.59359 3.71908 1.69775L7.21908 5.20817C7.26074 5.24984 7.29033 5.29498 7.30783 5.34359C7.32505 5.3922 7.33366 5.44428 7.33366 5.49984C7.33366 5.55539 7.32505 5.60748 7.30783 5.65609C7.29033 5.7047 7.26074 5.74984 7.21908 5.7915L3.70866 9.30192C3.61144 9.39914 3.49171 9.44775 3.34949 9.44775C3.20699 9.44775 3.08366 9.39567 2.97949 9.2915Z" fill="#666666"/>
</svg>
