<svg width="32" height="32" viewBox="0 0 32 32" fill="none" xmlns="http://www.w3.org/2000/svg">
<path d="M9.33301 29.3337C8.59967 29.3337 7.97212 29.0728 7.45034 28.551C6.92767 28.0283 6.66634 27.4003 6.66634 26.667C6.66634 25.9337 6.92767 25.3057 7.45034 24.783C7.97212 24.2612 8.59967 24.0003 9.33301 24.0003C10.0663 24.0003 10.6939 24.2612 11.2157 24.783C11.7383 25.3057 11.9997 25.9337 11.9997 26.667C11.9997 27.4003 11.7383 28.0283 11.2157 28.551C10.6939 29.0728 10.0663 29.3337 9.33301 29.3337ZM22.6663 29.3337C21.933 29.3337 21.3055 29.0728 20.7837 28.551C20.261 28.0283 19.9997 27.4003 19.9997 26.667C19.9997 25.9337 20.261 25.3057 20.7837 24.783C21.3055 24.2612 21.933 24.0003 22.6663 24.0003C23.3997 24.0003 24.0277 24.2612 24.5503 24.783C25.0721 25.3057 25.333 25.9337 25.333 26.667C25.333 27.4003 25.0721 28.0283 24.5503 28.551C24.0277 29.0728 23.3997 29.3337 22.6663 29.3337ZM9.33301 22.667C8.33301 22.667 7.57745 22.2279 7.06634 21.3497C6.55523 20.4723 6.53301 19.6003 6.99967 18.7337L8.79967 15.467L3.99967 5.33366H2.63301C2.25523 5.33366 1.94412 5.20566 1.69967 4.94966C1.45523 4.69455 1.33301 4.3781 1.33301 4.00033C1.33301 3.62255 1.46101 3.30566 1.71701 3.04966C1.97212 2.79455 2.28856 2.66699 2.66634 2.66699H4.83301C5.07745 2.66699 5.31079 2.73366 5.53301 2.86699C5.75523 3.00033 5.9219 3.18921 6.03301 3.43366L6.93301 5.33366H26.5997C27.1997 5.33366 27.6108 5.55588 27.833 6.00033C28.0552 6.44477 28.0441 6.91144 27.7997 7.40033L23.0663 15.9337C22.8219 16.3781 22.4997 16.7225 22.0997 16.967C21.6997 17.2114 21.2441 17.3337 20.733 17.3337H10.7997L9.33301 20.0003H24.033C24.4108 20.0003 24.7219 20.1279 24.9663 20.383C25.2108 20.639 25.333 20.9559 25.333 21.3337C25.333 21.7114 25.205 22.0279 24.949 22.283C24.6939 22.539 24.3775 22.667 23.9997 22.667H9.33301Z" fill="white"/>
</svg>
