<svg width="22" height="22" viewBox="0 0 22 22" fill="none" xmlns="http://www.w3.org/2000/svg">
<path d="M10.9999 0.333496C12.4144 0.333496 13.771 0.895399 14.7712 1.89559C15.7713 2.89579 16.3333 4.25234 16.3333 5.66683C16.3333 7.08132 15.7713 8.43787 14.7712 9.43807C13.771 10.4383 12.4144 11.0002 10.9999 11.0002C9.58543 11.0002 8.22888 10.4383 7.22868 9.43807C6.22849 8.43787 5.66658 7.08132 5.66658 5.66683C5.66658 4.25234 6.22849 2.89579 7.22868 1.89559C8.22888 0.895399 9.58543 0.333496 10.9999 0.333496ZM10.9999 13.6668C16.8933 13.6668 21.6666 16.0535 21.6666 19.0002V21.6668H0.333252V19.0002C0.333252 16.0535 5.10659 13.6668 10.9999 13.6668Z" fill="white"/>
</svg>
