<svg width="24" height="24" viewBox="0 0 24 24" fill="none" xmlns="http://www.w3.org/2000/svg">
<path d="M21.2005 23.0667L13.7338 15.6C13.0672 16.1333 12.3005 16.5556 11.4338 16.8667C10.5672 17.1778 9.64493 17.3333 8.66716 17.3333C6.24493 17.3333 4.19516 16.4947 2.51782 14.8173C0.839599 13.1391 0.000488281 11.0889 0.000488281 8.66667C0.000488281 6.24445 0.839599 4.19422 2.51782 2.516C4.19516 0.838667 6.24493 0 8.66716 0C11.0894 0 13.1396 0.838667 14.8178 2.516C16.4952 4.19422 17.3338 6.24445 17.3338 8.66667C17.3338 9.64445 17.1783 10.5667 16.8672 11.4333C16.556 12.3 16.1338 13.0667 15.6005 13.7333L23.1005 21.2333C23.3449 21.4778 23.4672 21.7778 23.4672 22.1333C23.4672 22.4889 23.3338 22.8 23.0672 23.0667C22.8227 23.3111 22.5116 23.4333 22.1338 23.4333C21.756 23.4333 21.4449 23.3111 21.2005 23.0667ZM8.66716 14.6667C10.3338 14.6667 11.7507 14.0836 12.9178 12.9173C14.084 11.7502 14.6672 10.3333 14.6672 8.66667C14.6672 7 14.084 5.58311 12.9178 4.416C11.7507 3.24978 10.3338 2.66667 8.66716 2.66667C7.00049 2.66667 5.5836 3.24978 4.41649 4.416C3.25027 5.58311 2.66716 7 2.66716 8.66667C2.66716 10.3333 3.25027 11.7502 4.41649 12.9173C5.5836 14.0836 7.00049 14.6667 8.66716 14.6667Z" fill="white"/>
</svg>
